<mxfile host="app.diagrams.net" modified="2024-03-12T15:28:56.013Z" agent="Mozilla/5.0 (Windows NT 10.0; Win64; x64) AppleWebKit/537.36 (KHTML, like Gecko) Chrome/122.0.0.0 Safari/537.36" etag="z_M2t_TMEfkhYuGKG_iM" version="24.0.5" type="device">
  <diagram name="Page-1" id="3goPo1IwKATkwI3LGeZA">
    <mxGraphModel dx="880" dy="468" grid="1" gridSize="10" guides="1" tooltips="1" connect="1" arrows="1" fold="1" page="1" pageScale="1" pageWidth="850" pageHeight="1100" math="0" shadow="0">
      <root>
        <mxCell id="0" />
        <mxCell id="1" parent="0" />
        <mxCell id="a7U0-4zLXlyihGIFFuAz-2" value="Mulai" style="ellipse;whiteSpace=wrap;html=1;" parent="1" vertex="1">
          <mxGeometry x="30" y="10" width="90" height="50" as="geometry" />
        </mxCell>
        <mxCell id="a7U0-4zLXlyihGIFFuAz-8" value="" style="endArrow=none;html=1;rounded=0;" parent="1" edge="1">
          <mxGeometry width="50" height="50" relative="1" as="geometry">
            <mxPoint x="75" y="110" as="sourcePoint" />
            <mxPoint x="74.5" y="60" as="targetPoint" />
            <Array as="points">
              <mxPoint x="74.5" y="74.5" />
            </Array>
          </mxGeometry>
        </mxCell>
        <mxCell id="a7U0-4zLXlyihGIFFuAz-9" value="Login" style="rounded=0;whiteSpace=wrap;html=1;" parent="1" vertex="1">
          <mxGeometry x="35" y="110" width="80" height="40" as="geometry" />
        </mxCell>
        <mxCell id="a7U0-4zLXlyihGIFFuAz-30" style="edgeStyle=orthogonalEdgeStyle;rounded=0;orthogonalLoop=1;jettySize=auto;html=1;entryX=1;entryY=0.5;entryDx=0;entryDy=0;" parent="1" source="a7U0-4zLXlyihGIFFuAz-10" target="a7U0-4zLXlyihGIFFuAz-9" edge="1">
          <mxGeometry relative="1" as="geometry">
            <mxPoint x="170" y="120" as="targetPoint" />
            <Array as="points">
              <mxPoint x="135" y="230" />
              <mxPoint x="135" y="130" />
            </Array>
          </mxGeometry>
        </mxCell>
        <mxCell id="a7U0-4zLXlyihGIFFuAz-10" value="Verifikasi" style="rhombus;whiteSpace=wrap;html=1;" parent="1" vertex="1">
          <mxGeometry x="35" y="190" width="80" height="80" as="geometry" />
        </mxCell>
        <mxCell id="a7U0-4zLXlyihGIFFuAz-11" value="" style="endArrow=none;html=1;rounded=0;" parent="1" edge="1">
          <mxGeometry width="50" height="50" relative="1" as="geometry">
            <mxPoint x="74.5" y="190" as="sourcePoint" />
            <mxPoint x="74.5" y="150" as="targetPoint" />
          </mxGeometry>
        </mxCell>
        <mxCell id="a7U0-4zLXlyihGIFFuAz-17" value="" style="endArrow=none;html=1;rounded=0;" parent="1" edge="1">
          <mxGeometry width="50" height="50" relative="1" as="geometry">
            <mxPoint x="74.5" y="300" as="sourcePoint" />
            <mxPoint x="74.5" y="270" as="targetPoint" />
          </mxGeometry>
        </mxCell>
        <mxCell id="a7U0-4zLXlyihGIFFuAz-18" value="Masuk ke halaman utama" style="rounded=0;whiteSpace=wrap;html=1;" parent="1" vertex="1">
          <mxGeometry x="35" y="300" width="85" height="40" as="geometry" />
        </mxCell>
        <mxCell id="a7U0-4zLXlyihGIFFuAz-19" value="T" style="text;html=1;align=center;verticalAlign=middle;resizable=0;points=[];autosize=1;strokeColor=none;fillColor=none;" parent="1" vertex="1">
          <mxGeometry x="85" y="270" width="30" height="30" as="geometry" />
        </mxCell>
        <mxCell id="a7U0-4zLXlyihGIFFuAz-20" value="" style="endArrow=none;html=1;rounded=0;" parent="1" edge="1">
          <mxGeometry width="50" height="50" relative="1" as="geometry">
            <mxPoint x="120" y="319.5" as="sourcePoint" />
            <mxPoint x="200" y="320" as="targetPoint" />
          </mxGeometry>
        </mxCell>
        <mxCell id="a7U0-4zLXlyihGIFFuAz-26" value="Menu keluhan barang" style="rhombus;whiteSpace=wrap;html=1;" parent="1" vertex="1">
          <mxGeometry x="200" y="280" width="110" height="80" as="geometry" />
        </mxCell>
        <mxCell id="a7U0-4zLXlyihGIFFuAz-28" value="" style="endArrow=none;html=1;rounded=0;" parent="1" edge="1">
          <mxGeometry width="50" height="50" relative="1" as="geometry">
            <mxPoint x="254.5" y="400" as="sourcePoint" />
            <mxPoint x="254.5" y="360" as="targetPoint" />
          </mxGeometry>
        </mxCell>
        <mxCell id="a7U0-4zLXlyihGIFFuAz-34" value="" style="endArrow=none;html=1;rounded=0;" parent="1" edge="1">
          <mxGeometry width="50" height="50" relative="1" as="geometry">
            <mxPoint x="254.5" y="500" as="sourcePoint" />
            <mxPoint x="254.5" y="460" as="targetPoint" />
          </mxGeometry>
        </mxCell>
        <mxCell id="a7U0-4zLXlyihGIFFuAz-35" value="" style="endArrow=none;html=1;rounded=0;" parent="1" edge="1">
          <mxGeometry width="50" height="50" relative="1" as="geometry">
            <mxPoint x="254.5" y="610" as="sourcePoint" />
            <mxPoint x="254.5" y="560" as="targetPoint" />
          </mxGeometry>
        </mxCell>
        <mxCell id="a7U0-4zLXlyihGIFFuAz-38" value="&lt;div&gt;&lt;br&gt;&lt;/div&gt;User&amp;nbsp; memasukkan barang keluhan" style="shape=parallelogram;perimeter=parallelogramPerimeter;whiteSpace=wrap;html=1;fixedSize=1;" parent="1" vertex="1">
          <mxGeometry x="195" y="400" width="120" height="60" as="geometry" />
        </mxCell>
        <mxCell id="a7U0-4zLXlyihGIFFuAz-39" value="&lt;div&gt;&lt;br&gt;&lt;/div&gt;User memasukkan keterangan keluhan" style="shape=parallelogram;perimeter=parallelogramPerimeter;whiteSpace=wrap;html=1;fixedSize=1;" parent="1" vertex="1">
          <mxGeometry x="190" y="500" width="130" height="60" as="geometry" />
        </mxCell>
        <mxCell id="a7U0-4zLXlyihGIFFuAz-40" value="&lt;div&gt;&lt;br&gt;&lt;/div&gt;&lt;div&gt;&lt;br&gt;&lt;/div&gt;User memasukkan saran" style="shape=parallelogram;perimeter=parallelogramPerimeter;whiteSpace=wrap;html=1;fixedSize=1;" parent="1" vertex="1">
          <mxGeometry x="195" y="610" width="120" height="60" as="geometry" />
        </mxCell>
        <mxCell id="a7U0-4zLXlyihGIFFuAz-41" value="" style="endArrow=none;html=1;rounded=0;" parent="1" edge="1">
          <mxGeometry width="50" height="50" relative="1" as="geometry">
            <mxPoint x="310" y="319" as="sourcePoint" />
            <mxPoint x="370" y="319" as="targetPoint" />
          </mxGeometry>
        </mxCell>
        <mxCell id="a7U0-4zLXlyihGIFFuAz-42" value="&lt;div&gt;&lt;br&gt;&lt;/div&gt;Menu kehilangan barang" style="rhombus;whiteSpace=wrap;html=1;" parent="1" vertex="1">
          <mxGeometry x="370" y="275" width="110" height="90" as="geometry" />
        </mxCell>
        <mxCell id="a7U0-4zLXlyihGIFFuAz-43" value="" style="endArrow=none;html=1;rounded=0;exitX=0.5;exitY=0;exitDx=0;exitDy=0;entryX=0.5;entryY=1;entryDx=0;entryDy=0;" parent="1" source="a7U0-4zLXlyihGIFFuAz-44" target="a7U0-4zLXlyihGIFFuAz-40" edge="1">
          <mxGeometry width="50" height="50" relative="1" as="geometry">
            <mxPoint x="404.5" y="690" as="sourcePoint" />
            <mxPoint x="404.5" y="660" as="targetPoint" />
          </mxGeometry>
        </mxCell>
        <mxCell id="a7U0-4zLXlyihGIFFuAz-45" style="edgeStyle=orthogonalEdgeStyle;rounded=0;orthogonalLoop=1;jettySize=auto;html=1;entryX=0.5;entryY=1;entryDx=0;entryDy=0;" parent="1" source="a7U0-4zLXlyihGIFFuAz-44" target="a7U0-4zLXlyihGIFFuAz-18" edge="1">
          <mxGeometry relative="1" as="geometry">
            <mxPoint x="80" y="440" as="targetPoint" />
          </mxGeometry>
        </mxCell>
        <mxCell id="a7U0-4zLXlyihGIFFuAz-44" value="" style="ellipse;whiteSpace=wrap;html=1;" parent="1" vertex="1">
          <mxGeometry x="225" y="960" width="60" height="40" as="geometry" />
        </mxCell>
        <mxCell id="a7U0-4zLXlyihGIFFuAz-46" value="" style="endArrow=none;html=1;rounded=0;" parent="1" edge="1">
          <mxGeometry width="50" height="50" relative="1" as="geometry">
            <mxPoint x="425" y="400" as="sourcePoint" />
            <mxPoint x="425" y="365" as="targetPoint" />
          </mxGeometry>
        </mxCell>
        <mxCell id="a7U0-4zLXlyihGIFFuAz-47" value="&lt;div&gt;&lt;br&gt;&lt;/div&gt;User memasukkan nama pemilik" style="shape=parallelogram;perimeter=parallelogramPerimeter;whiteSpace=wrap;html=1;fixedSize=1;" parent="1" vertex="1">
          <mxGeometry x="365" y="400" width="120" height="60" as="geometry" />
        </mxCell>
        <mxCell id="a7U0-4zLXlyihGIFFuAz-48" value="" style="endArrow=none;html=1;rounded=0;" parent="1" edge="1">
          <mxGeometry width="50" height="50" relative="1" as="geometry">
            <mxPoint x="424" y="490" as="sourcePoint" />
            <mxPoint x="424" y="460" as="targetPoint" />
          </mxGeometry>
        </mxCell>
        <mxCell id="a7U0-4zLXlyihGIFFuAz-49" value="&lt;div&gt;&lt;br&gt;&lt;/div&gt;&lt;div&gt;&lt;span style=&quot;background-color: initial;&quot;&gt;User memasukkan nama barang&lt;/span&gt;&lt;br&gt;&lt;/div&gt;" style="shape=parallelogram;perimeter=parallelogramPerimeter;whiteSpace=wrap;html=1;fixedSize=1;" parent="1" vertex="1">
          <mxGeometry x="365" y="490" width="120" height="60" as="geometry" />
        </mxCell>
        <mxCell id="a7U0-4zLXlyihGIFFuAz-50" value="" style="endArrow=none;html=1;rounded=0;" parent="1" edge="1">
          <mxGeometry width="50" height="50" relative="1" as="geometry">
            <mxPoint x="424" y="600" as="sourcePoint" />
            <mxPoint x="424" y="550" as="targetPoint" />
          </mxGeometry>
        </mxCell>
        <mxCell id="a7U0-4zLXlyihGIFFuAz-51" value="User memasukkan tanggal penemuan" style="shape=parallelogram;perimeter=parallelogramPerimeter;whiteSpace=wrap;html=1;fixedSize=1;" parent="1" vertex="1">
          <mxGeometry x="365" y="600" width="120" height="60" as="geometry" />
        </mxCell>
        <mxCell id="a7U0-4zLXlyihGIFFuAz-52" value="&lt;div&gt;&lt;br&gt;&lt;/div&gt;User memasukkan keterangan" style="shape=parallelogram;perimeter=parallelogramPerimeter;whiteSpace=wrap;html=1;fixedSize=1;" parent="1" vertex="1">
          <mxGeometry x="365" y="720" width="120" height="60" as="geometry" />
        </mxCell>
        <mxCell id="a7U0-4zLXlyihGIFFuAz-53" value="" style="endArrow=none;html=1;rounded=0;exitX=0.5;exitY=0;exitDx=0;exitDy=0;entryX=0.5;entryY=1;entryDx=0;entryDy=0;" parent="1" source="a7U0-4zLXlyihGIFFuAz-52" target="a7U0-4zLXlyihGIFFuAz-51" edge="1">
          <mxGeometry width="50" height="50" relative="1" as="geometry">
            <mxPoint x="520" y="710" as="sourcePoint" />
            <mxPoint x="570" y="660" as="targetPoint" />
          </mxGeometry>
        </mxCell>
        <mxCell id="a7U0-4zLXlyihGIFFuAz-54" value="User mengirim laporan" style="shape=parallelogram;perimeter=parallelogramPerimeter;whiteSpace=wrap;html=1;fixedSize=1;" parent="1" vertex="1">
          <mxGeometry x="365" y="840" width="120" height="60" as="geometry" />
        </mxCell>
        <mxCell id="a7U0-4zLXlyihGIFFuAz-55" value="" style="endArrow=none;html=1;rounded=0;exitX=0.5;exitY=0;exitDx=0;exitDy=0;entryX=0.5;entryY=1;entryDx=0;entryDy=0;" parent="1" source="a7U0-4zLXlyihGIFFuAz-54" target="a7U0-4zLXlyihGIFFuAz-52" edge="1">
          <mxGeometry width="50" height="50" relative="1" as="geometry">
            <mxPoint x="520" y="820" as="sourcePoint" />
            <mxPoint x="570" y="770" as="targetPoint" />
          </mxGeometry>
        </mxCell>
        <mxCell id="a7U0-4zLXlyihGIFFuAz-58" value="" style="endArrow=none;html=1;rounded=0;" parent="1" edge="1">
          <mxGeometry width="50" height="50" relative="1" as="geometry">
            <mxPoint x="425" y="980" as="sourcePoint" />
            <mxPoint x="425" y="890" as="targetPoint" />
          </mxGeometry>
        </mxCell>
        <mxCell id="a7U0-4zLXlyihGIFFuAz-59" value="" style="endArrow=none;html=1;rounded=0;" parent="1" edge="1">
          <mxGeometry width="50" height="50" relative="1" as="geometry">
            <mxPoint x="285" y="979.5" as="sourcePoint" />
            <mxPoint x="430" y="980" as="targetPoint" />
          </mxGeometry>
        </mxCell>
        <mxCell id="a7U0-4zLXlyihGIFFuAz-60" value="F" style="text;html=1;align=center;verticalAlign=middle;resizable=0;points=[];autosize=1;strokeColor=none;fillColor=none;" parent="1" vertex="1">
          <mxGeometry x="150" y="290" width="30" height="30" as="geometry" />
        </mxCell>
        <mxCell id="a7U0-4zLXlyihGIFFuAz-61" value="F" style="text;html=1;align=center;verticalAlign=middle;resizable=0;points=[];autosize=1;strokeColor=none;fillColor=none;" parent="1" vertex="1">
          <mxGeometry x="330" y="290" width="30" height="30" as="geometry" />
        </mxCell>
        <mxCell id="BwfzueKmspFr1JT58sxM-1" value="F" style="text;html=1;align=center;verticalAlign=middle;resizable=0;points=[];autosize=1;strokeColor=none;fillColor=none;" vertex="1" parent="1">
          <mxGeometry x="110" y="200" width="30" height="30" as="geometry" />
        </mxCell>
      </root>
    </mxGraphModel>
  </diagram>
</mxfile>
